# xmcd
#
# Track frame offsets: 
#        150
#        15900
#        32535
#        50565
#        66535
#        85336
#        106141
#        123022
#        142896
#        158403
#        175251
#        194414
#        214125
#        231718
#        245555
#        264025
#
# Disc length: 3733 seconds
#
# Revision: 0
# Processed by: cddbd v1.5.2PL0 Copyright (c) Steve Scherf et al.
# Submitted via: ExactAudioCopyFreeDBPlugin 1.0
#
DISCID=d20e9310
DTITLE=31A - STE20试音极品TESTCD
DYEAR=2015
DGENRE=STE
TTITLE0=毛主席来到咱农庄
TTITLE1=花儿为什么这样红
TTITLE2=采蘑菇的小姑娘
TTITLE3=乡间小路
TTITLE4=闪亮的日子
TTITLE5=春天的故事
TTITLE6=爱我中华
TTITLE7=草原之夜
TTITLE8=马车夫之歌
TTITLE9=哎哟，妈妈
TTITLE10=鸽子
TTITLE11=康定情歌
TTITLE12=红莓花儿开
TTITLE13=青春舞曲
TTITLE14=半个月亮爬上来
TTITLE15=年轻的朋友来相会
EXTD=
EXTT0=
EXTT1=
EXTT2=
EXTT3=
EXTT4=
EXTT5=
EXTT6=
EXTT7=
EXTT8=
EXTT9=
EXTT10=
EXTT11=
EXTT12=
EXTT13=
EXTT14=
EXTT15=
PLAYORDER=
